<svg width="300" height="241" viewBox="0 0 300 241" fill="none" xmlns="http://www.w3.org/2000/svg">
<g clip-path="url(#clip0_4825_1253)">
<path opacity="0.1" d="M149.188 160.812C149.896 161.024 150.606 161.198 151.316 161.352C150.503 162.708 149.842 164.185 149.366 165.768C146.273 176.06 152.126 186.906 162.439 189.993C165.901 191.029 169.424 191.055 172.696 190.248C174.757 194.317 178.407 197.574 183.129 198.987C188.951 200.73 194.964 199.248 199.273 195.59C201.77 199.71 205.747 202.955 210.733 204.448C221.402 207.641 232.644 201.599 235.844 190.952C237.246 186.286 236.871 181.51 235.109 177.348C235.709 177.572 236.315 177.785 236.938 177.971C251.874 182.442 267.614 173.982 272.094 159.076C276.573 144.171 268.097 128.463 253.16 123.992C249.225 122.815 245.235 122.542 241.408 123.041C240.211 113.744 233.696 105.559 224.119 102.693C216.407 100.384 208.449 102.043 202.442 106.486C200.499 105.144 198.318 104.076 195.932 103.362C187.146 100.732 178.02 103.569 172.22 109.902C170.143 108.613 167.866 107.569 165.411 106.834C150.475 102.363 134.735 110.823 130.255 125.729C125.775 140.634 134.252 156.342 149.188 160.812Z" fill="#0676D7"/>
<path opacity="0.1" d="M151.243 28.8489C150.504 28.8489 149.774 28.8861 149.049 28.9416C149.438 27.4096 149.646 25.8052 149.646 24.1526C149.646 13.4078 140.918 4.69687 130.151 4.69687C126.536 4.69687 123.154 5.68238 120.252 7.39282C117.107 4.0862 112.673 2.01331 107.744 2.01331C101.666 2.01331 96.3323 5.15659 93.2585 9.89607C89.6807 6.66515 84.937 4.69687 79.7318 4.69687C68.5935 4.69687 59.5645 13.7078 59.5645 24.8234C59.5645 29.6945 61.2987 34.1614 64.1849 37.6429C63.5459 37.5997 62.9032 37.5699 62.2535 37.5699C46.6594 37.5699 34.0186 50.1853 34.0186 65.7471C34.0186 81.3089 46.6594 93.9243 62.2535 93.9243C66.3623 93.9243 70.2623 93.0411 73.784 91.466C77.6073 100.028 86.2027 106 96.2022 106C104.254 106 111.399 102.13 115.873 96.1527C118.121 96.8804 120.517 97.2786 123.008 97.2786C132.181 97.2786 140.105 91.9454 143.838 84.2168C146.198 84.8559 148.68 85.2028 151.243 85.2028C166.837 85.2028 179.478 72.5874 179.478 57.0256C179.478 41.4638 166.837 28.8485 151.243 28.8485L151.243 28.8489Z" fill="#0676D7"/>
<path d="M169.374 171.949C169.374 184.575 159.117 194.811 146.464 194.811C133.812 194.811 123.555 184.575 123.555 171.949H169.374Z" fill="white" stroke="#39404D" stroke-width="4.04566" stroke-linecap="round" stroke-linejoin="round"/>
<path d="M169.371 171.949C169.371 184.574 159.115 194.809 146.463 194.809C133.812 194.809 123.556 184.574 123.556 171.949" fill="white"/>
<path d="M169.371 171.949C169.371 184.574 159.115 194.809 146.463 194.809C133.812 194.809 123.556 184.574 123.556 171.949" stroke="#39404D" stroke-width="4.04566" stroke-linecap="round" stroke-linejoin="round"/>
<path d="M248.407 171.952V228.987C248.407 233.974 244.352 238.021 239.35 238.021H53.5753C48.5733 238.021 44.5183 233.974 44.5183 228.987V171.952H123.554C123.554 184.579 133.811 194.815 146.463 194.815C159.115 194.815 169.372 184.579 169.372 171.952H248.407Z" fill="white"/>
<path d="M239.35 238.468H53.5756C48.3281 238.468 44.0588 234.209 44.0588 228.975V171.94C44.0588 171.687 44.2643 171.482 44.5186 171.482H123.554C123.808 171.482 124.014 171.687 124.014 171.94C124.014 184.294 134.084 194.344 146.463 194.344C158.842 194.344 168.912 184.294 168.912 171.94C168.912 171.687 169.118 171.482 169.372 171.482H248.407C248.661 171.482 248.867 171.687 248.867 171.94V228.975C248.867 234.209 244.597 238.468 239.35 238.468ZM44.9779 172.399V228.975C44.9779 233.703 48.8347 237.55 53.5751 237.55H239.35C244.09 237.55 247.947 233.703 247.947 228.975V172.399H169.827C169.581 185.048 159.195 195.262 146.463 195.262C133.73 195.262 123.344 185.048 123.098 172.399H44.9779Z" fill="#39404D"/>
<path d="M248.407 171.96H169.372C169.372 184.587 159.115 194.823 146.462 194.823C133.81 194.823 123.553 184.587 123.553 171.96H44.5178L102.299 135.687H192.938L248.407 171.96Z" fill="#0676D7"/>
<path opacity="0.7" d="M248.407 171.96H169.372C169.372 184.587 159.115 194.823 146.462 194.823C133.81 194.823 123.553 184.587 123.553 171.96H44.5178L102.299 135.687H192.938L248.407 171.96Z" fill="white"/>
<path d="M146.463 195.271C133.731 195.271 123.345 185.057 123.099 172.409H44.5186C44.314 172.409 44.1338 172.273 44.0768 172.077C44.0202 171.88 44.1007 171.67 44.274 171.561L102.055 135.287C102.128 135.241 102.213 135.217 102.3 135.217H192.939C193.028 135.217 193.116 135.243 193.191 135.292L248.659 171.566C248.829 171.677 248.906 171.886 248.847 172.081C248.789 172.275 248.61 172.409 248.407 172.409H169.827C169.582 185.057 159.195 195.271 146.463 195.271H146.463ZM46.1134 171.491H123.554C123.808 171.491 124.014 171.696 124.014 171.95C124.014 184.303 134.085 194.353 146.463 194.353C158.842 194.353 168.913 184.303 168.913 171.95C168.913 171.696 169.118 171.491 169.373 171.491H246.867L192.802 136.135H102.433L46.1134 171.491Z" fill="#39404D"/>
<path d="M73.1666 138.619C73.0751 138.619 72.9823 138.591 72.9013 138.534C72.6945 138.388 72.6453 138.101 72.7924 137.895C72.8774 137.774 81.1865 125.787 71.9106 114.858C68.1048 110.374 62.9561 108.657 58.5338 108.657C58.4929 108.657 58.4515 108.657 58.411 108.657C59.2919 111.71 59.1347 114.426 57.8874 116.509C56.7086 118.478 54.6048 119.635 52.5171 119.454C50.6767 119.295 49.2225 118.166 48.5269 116.356C47.5067 113.701 48.5747 111.125 51.3829 109.466C52.8867 108.578 54.9073 107.978 57.1706 107.805C56.5946 106.227 55.739 104.558 54.6121 102.841C51.2629 97.7361 45.1588 94.2023 37.864 93.1457C31.6827 92.2501 25.7584 93.3049 22.7696 95.8311C22.5746 95.9953 22.2845 95.9701 22.1218 95.7774C21.9577 95.5843 21.9816 95.2943 22.1751 95.1305C25.3561 92.4419 31.5659 91.3059 37.9959 92.2377C45.5514 93.332 51.8877 97.0134 55.3813 102.338C56.6074 104.207 57.5251 106.03 58.1251 107.759C62.8816 107.648 68.5006 109.422 72.6112 114.265C82.3547 125.744 73.631 138.3 73.5413 138.425C73.4517 138.551 73.3101 138.618 73.1662 138.618L73.1666 138.619ZM57.4676 108.691C55.2677 108.831 53.3023 109.4 51.8518 110.257C49.4262 111.69 48.5278 113.794 49.3862 116.029C49.9508 117.498 51.1208 118.414 52.5971 118.542C54.3262 118.691 56.0985 117.709 57.0985 116.039C58.2441 114.126 58.3494 111.583 57.4676 108.691Z" fill="#39404D"/>
<path d="M14.8346 103.237C14.1523 103.442 13.4259 103.408 12.757 103.135C11.9846 102.82 11.3809 102.223 11.0582 101.455C10.7355 100.686 10.7313 99.8385 11.0472 99.0672C11.3635 98.2964 11.9611 97.694 12.7312 97.3715C14.3178 96.708 16.1563 97.455 16.8225 99.0411C17.4891 100.628 16.7384 102.459 15.149 103.124C15.0456 103.168 14.9408 103.205 14.8346 103.237ZM13.3059 98.1391C13.2319 98.1611 13.1588 98.1872 13.0861 98.218C12.5427 98.4455 12.1207 98.8704 11.8977 99.4145C11.6747 99.9591 11.6775 100.557 11.905 101.1C12.1331 101.642 12.5593 102.063 13.1045 102.286C13.6498 102.508 14.2488 102.506 14.7927 102.278C15.9145 101.809 16.4446 100.516 15.9743 99.3957C15.5338 98.3487 14.3716 97.8188 13.3054 98.1386L13.3059 98.1391Z" fill="#39404D"/>
<path d="M14.83 96.043C14.1473 96.2481 13.4209 96.2141 12.7519 95.9411C11.9791 95.6259 11.3754 95.029 11.0532 94.2605C10.73 93.492 10.7258 92.6446 11.0421 91.8733C11.3584 91.1021 11.9561 90.4997 12.7266 90.1771C13.4953 89.8564 14.3463 89.8514 15.1187 90.1666C15.8916 90.4818 16.4952 91.0787 16.8175 91.8472C17.1407 92.6152 17.1448 93.4631 16.8285 94.2344C16.5127 95.0056 15.9145 95.608 15.144 95.9306C15.0406 95.9737 14.9357 96.0113 14.83 96.043ZM13.3032 90.9438C13.2282 90.9663 13.1547 90.9924 13.0816 91.0232C12.5382 91.2507 12.1161 91.6756 11.8927 92.2197C11.6701 92.7639 11.6724 93.3626 11.9005 93.9049C12.1285 94.4472 12.5542 94.8689 13.1 95.0909C13.6452 95.3135 14.2415 95.3116 14.7886 95.0836C15.332 94.856 15.7541 94.4312 15.9775 93.887C16.2 93.3429 16.1977 92.7442 15.9697 92.2018C15.7417 91.6595 15.3159 91.2379 14.7702 91.0158C14.2981 90.8231 13.7854 90.7993 13.3036 90.9438H13.3032Z" fill="#39404D"/>
<path d="M13.9326 99.2832C16.1903 99.2832 18.0206 98.0633 18.0206 96.5584C18.0206 95.0535 16.1903 93.8335 13.9326 93.8335C11.6748 93.8335 9.84448 95.0535 9.84448 96.5584C9.84448 98.0633 11.6748 99.2832 13.9326 99.2832Z" fill="white"/>
<path d="M15.7429 99.4859C15.1806 99.6548 14.5683 99.7438 13.9375 99.7442C11.3873 99.7465 9.38828 98.3495 9.3869 96.5643C9.38552 94.7786 11.3817 93.3792 13.9315 93.3765C15.1135 93.3755 16.2312 93.6852 17.0785 94.2491C17.9828 94.8506 18.4812 95.67 18.4821 96.556C18.483 97.442 17.986 98.2623 17.0826 98.8656C16.6882 99.129 16.2344 99.3377 15.7429 99.485V99.4859ZM12.4051 94.5143C11.1767 94.8832 10.3059 95.6737 10.3064 96.5633C10.3073 97.7916 11.9693 98.828 13.9361 98.8266C14.9388 98.8257 15.8749 98.5688 16.5709 98.1036C17.2104 97.6764 17.5626 97.1272 17.5621 96.5578C17.5617 95.988 17.2086 95.4397 16.5682 95.0135C15.8703 94.5492 14.9342 94.2941 13.9324 94.295C13.3904 94.295 12.8718 94.3744 12.4051 94.5148V94.5143Z" fill="#39404D"/>
<path d="M14.9382 99.1938L14.8416 93.895L13.5212 93.8413L13.4288 99.2561L14.9382 99.1938Z" fill="#39404D"/>
<path d="M8.51085 97.7191C8.74395 97.7191 8.9329 97.5304 8.9329 97.2975C8.9329 97.0647 8.74395 96.876 8.51085 96.876C8.27776 96.876 8.08881 97.0647 8.08881 97.2975C8.08881 97.5304 8.27776 97.7191 8.51085 97.7191Z" fill="#39404D"/>
<path d="M8.83928 95.4563C9.07238 95.4563 9.26133 95.2675 9.26133 95.0347C9.26133 94.8019 9.07238 94.6132 8.83928 94.6132C8.60619 94.6132 8.41724 94.8019 8.41724 95.0347C8.41724 95.2675 8.60619 95.4563 8.83928 95.4563Z" fill="#39404D"/>
<path d="M154.622 156.089L95.3206 122.308L141.212 41.7485L182.217 65.1074L190.09 93.8258L154.622 156.089Z" fill="white"/>
<path opacity="0.3" d="M164.241 115.963C166.192 115.963 167.774 114.381 167.774 112.43C167.774 110.479 166.192 108.898 164.241 108.898C162.29 108.898 160.709 110.479 160.709 112.43C160.709 114.381 162.29 115.963 164.241 115.963Z" fill="#0676D7"/>
<path opacity="0.3" d="M126.964 97.358C128.915 97.358 130.496 95.7766 130.496 93.8257C130.496 91.8749 128.915 90.2935 126.964 90.2935C125.013 90.2935 123.432 91.8749 123.432 93.8257C123.432 95.7766 125.013 97.358 126.964 97.358Z" fill="#0676D7"/>
<path d="M154.794 156.72L94.6896 122.481L141.038 41.1178L182.612 64.8006L190.587 93.888L154.794 156.72ZM95.9513 122.135L154.449 155.459L189.594 93.763L181.821 65.4145L141.384 42.3795L95.9509 122.135H95.9513Z" fill="#39404D"/>
<path d="M182.217 65.1075L171.795 83.4036L190.091 93.826L182.217 65.1075Z" fill="#39404D"/>
<path d="M190.09 94.2879C190.012 94.2879 189.933 94.2679 189.862 94.2272L171.566 83.8049C171.344 83.6787 171.267 83.3963 171.393 83.1742L181.815 64.8785C181.908 64.716 182.09 64.6253 182.275 64.6485C182.46 64.6716 182.613 64.8046 182.663 64.9852L190.537 93.7032C190.586 93.8837 190.522 94.0758 190.374 94.1905C190.291 94.2548 190.191 94.2875 190.09 94.2875V94.2879ZM172.425 83.2301L189.349 92.8708L182.066 66.306L172.425 83.2301Z" fill="#39404D"/>
<path d="M138.837 89.1784C140.376 89.1784 141.624 87.9303 141.624 86.3906C141.624 84.8509 140.376 83.6028 138.837 83.6028C137.297 83.6028 136.049 84.8509 136.049 86.3906C136.049 87.9303 137.297 89.1784 138.837 89.1784Z" fill="#39404D"/>
<path d="M164.985 101.068C166.525 101.068 167.773 99.8198 167.773 98.2801C167.773 96.7404 166.525 95.4923 164.985 95.4923C163.446 95.4923 162.198 96.7404 162.198 98.2801C162.198 99.8198 163.446 101.068 164.985 101.068Z" fill="#39404D"/>
<path d="M153.137 118.167C152.887 118.167 152.682 117.968 152.675 117.717C152.548 113.016 149.895 108.72 145.753 106.506C141.908 104.451 137.307 104.442 133.447 106.482C133.221 106.601 132.941 106.515 132.822 106.289C132.702 106.063 132.789 105.783 133.015 105.664C137.147 103.48 142.072 103.49 146.189 105.69C150.624 108.061 153.463 112.659 153.599 117.691C153.606 117.946 153.405 118.159 153.15 118.166C153.145 118.166 153.141 118.166 153.137 118.166V118.167Z" fill="#39404D"/>
<path d="M141.262 83.5378C138.889 83.5378 137.134 82.3197 137.038 82.2518C136.829 82.104 136.78 81.8156 136.928 81.6071C137.075 81.399 137.363 81.3491 137.572 81.4969C137.609 81.5225 140.322 83.3849 143.353 82.227C143.592 82.1355 143.859 82.2558 143.95 82.4942C144.041 82.7326 143.922 83.0002 143.683 83.0913C142.836 83.4148 142.017 83.5382 141.262 83.5382L141.262 83.5378Z" fill="#39404D"/>
<path d="M169.817 96.8285C169.767 96.8285 169.715 96.8201 169.665 96.8025C165.766 95.443 165.323 92.4379 165.306 92.3105C165.272 92.0573 165.45 91.8248 165.703 91.7913C165.955 91.7585 166.188 91.9347 166.222 92.1867C166.238 92.2961 166.633 94.7664 169.969 95.9295C170.21 96.0137 170.338 96.2773 170.254 96.5182C170.187 96.7091 170.008 96.8285 169.817 96.8285Z" fill="#39404D"/>
<path d="M213.236 125.144C213.039 125.144 212.857 125.017 212.797 124.82C212.771 124.738 210.316 116.578 211.599 107.375C212.787 98.8424 217.503 87.6415 233.22 82.7369C235.778 81.939 238.025 81.4458 240.001 81.1856C240.741 76.5696 243.559 71.5622 249.859 68.1073C264.83 59.8984 274.942 67.2636 275.042 67.3388C275.244 67.4912 275.285 67.7784 275.133 67.9807C274.981 68.1835 274.693 68.2239 274.489 68.0725C274.394 68.0009 264.73 60.9991 250.302 68.9116C244.414 72.1403 241.719 76.7742 240.953 81.076C247.885 80.3947 251.206 82.7025 252.695 84.4459C254.59 86.6633 255.008 89.7135 253.76 92.2172C252.702 94.3396 250.665 95.5293 248.319 95.3871C244.447 95.1604 241.243 91.9103 240.157 87.1065C239.819 85.6104 239.697 83.9197 239.875 82.1496C237.901 82.418 235.764 82.9053 233.495 83.6132C221.245 87.436 214.184 95.4734 212.509 107.502C211.255 116.506 213.651 124.472 213.676 124.551C213.75 124.793 213.613 125.05 213.371 125.124C213.326 125.138 213.281 125.144 213.236 125.144V125.144ZM240.812 82.0367C240.613 83.7765 240.724 85.4397 241.054 86.9042C242.048 91.2987 244.92 94.2685 248.372 94.4709C250.337 94.5828 252.048 93.5909 252.937 91.8079C254.02 89.6341 253.651 86.9781 251.995 85.0405C249.845 82.5249 245.922 81.5082 240.812 82.0363V82.0367Z" fill="#39404D"/>
<path d="M285.753 71.9786C285.131 71.9786 284.52 71.801 283.984 71.4569C283.247 70.9834 282.738 70.2521 282.551 69.3968C282.167 67.6318 283.294 65.8833 285.063 65.4997C286.833 65.1162 288.583 66.2407 288.968 68.0057C289.352 69.7712 288.226 71.5193 286.456 71.9029C286.222 71.9538 285.987 71.9786 285.753 71.9786ZM285.76 66.3421C285.594 66.3421 285.426 66.36 285.258 66.3963C283.984 66.6725 283.174 67.931 283.45 69.2019C283.584 69.8176 283.95 70.3443 284.481 70.6852C285.012 71.0261 285.645 71.1408 286.261 71.0063C287.535 70.7301 288.346 69.4716 288.069 68.2007C287.829 67.0978 286.847 66.3421 285.76 66.3421Z" fill="#39404D"/>
<path d="M284.37 79.4693C283.748 79.4693 283.137 79.2917 282.6 78.9476C281.863 78.4742 281.355 77.7428 281.168 76.8876C280.983 76.0324 281.141 75.1561 281.616 74.4201C282.09 73.6842 282.823 73.1768 283.68 72.991C284.536 72.8047 285.415 72.9634 286.152 73.4369C286.89 73.9104 287.398 74.6417 287.585 75.497C287.77 76.3522 287.612 77.2285 287.137 77.9644C286.663 78.7003 285.93 79.2078 285.073 79.3936C284.839 79.4445 284.604 79.4693 284.37 79.4693ZM284.381 73.8329C284.213 73.8329 284.044 73.8508 283.874 73.8875C283.257 74.0214 282.73 74.3866 282.389 74.9166C282.047 75.4465 281.933 76.0773 282.067 76.6931C282.201 77.3088 282.567 77.8355 283.098 78.1764C283.629 78.5177 284.262 78.6315 284.878 78.4975C285.495 78.3636 286.022 77.9984 286.364 77.4684C286.705 76.9385 286.82 76.3077 286.685 75.6919C286.551 75.0762 286.185 74.5495 285.655 74.2086C285.268 73.9609 284.829 73.8333 284.381 73.8333L284.381 73.8329Z" fill="#39404D"/>
<path d="M289.306 73.3157C289.596 71.7486 287.925 70.1272 285.574 69.6942C283.222 69.2613 281.082 70.1807 280.792 71.7478C280.502 73.3149 282.173 74.9363 284.524 75.3693C286.875 75.8022 289.016 74.8828 289.306 73.3157Z" fill="white"/>
<path d="M285.684 75.9504C285.277 75.9504 284.861 75.9123 284.443 75.8357C283.217 75.61 282.118 75.0746 281.349 74.3281C280.53 73.5339 280.172 72.5933 280.342 71.6798C280.511 70.7664 281.181 70.0153 282.23 69.5647C283.215 69.1413 284.432 69.033 285.659 69.2583C286.885 69.484 287.983 70.0194 288.752 70.7659C289.571 71.5601 289.929 72.5006 289.76 73.4141C289.591 74.3276 288.92 75.0787 287.872 75.5292C287.222 75.8082 286.471 75.9504 285.684 75.9504ZM284.414 70.0603C283.753 70.0603 283.129 70.1777 282.593 70.4076C281.836 70.7329 281.357 71.244 281.246 71.8464C281.134 72.4488 281.398 73.0966 281.99 73.6701C282.63 74.2914 283.561 74.7405 284.609 74.9332C285.657 75.1255 286.687 75.0383 287.508 74.6864C288.265 74.3611 288.744 73.85 288.855 73.2476C288.967 72.6452 288.703 71.9973 288.112 71.4234C287.471 70.8021 286.541 70.3534 285.492 70.1603C285.128 70.0933 284.766 70.0603 284.414 70.0603Z" fill="#39404D"/>
<path d="M284.519 69.585L283.594 75.1209L284.959 75.4311L286.102 69.8112L284.519 69.585Z" fill="#39404D"/>
<path d="M290.064 75.5551C290.311 75.5551 290.511 75.3552 290.511 75.1087C290.511 74.8622 290.311 74.6624 290.064 74.6624C289.817 74.6624 289.617 74.8622 289.617 75.1087C289.617 75.3552 289.817 75.5551 290.064 75.5551Z" fill="#39404D"/>
<path d="M290.839 73.2639C291.086 73.2639 291.286 73.0641 291.286 72.8176C291.286 72.5711 291.086 72.3712 290.839 72.3712C290.592 72.3712 290.392 72.5711 290.392 72.8176C290.392 73.0641 290.592 73.2639 290.839 73.2639Z" fill="#39404D"/>
</g>
<defs>
<clipPath id="clip0_4825_1253">
<rect width="285.219" height="236.459" fill="white" transform="translate(6.07141 2.01624)"/>
</clipPath>
</defs>
</svg>
