<svg width="444" height="416" viewBox="0 0 444 416" fill="none" xmlns="http://www.w3.org/2000/svg">
<g clip-path="url(#clip0_3399_20940)">
<path d="M250.206 23.9137C250.206 23.9137 255.505 18.643 255.563 8.17414C255.608 0.0683888 248.979 6.22348 248.979 6.22348C248.979 6.22348 248.955 0.386644 244.858 1.52706C240.761 2.66801 239.246 9.01091 239.246 9.01091" fill="#181818"/>
<path d="M223.362 5.15503C223.362 5.15503 202.943 10.2157 214.281 37.2717L216.131 37.1434L219.888 36.8831" fill="#181818"/>
<path d="M249.569 65.3918C249.477 65.3799 248.457 82.3134 228.786 80.8375C215.168 79.8172 210.312 65.368 210 65.368C211.468 65.0557 213.283 64.5821 214.004 64.4197C216.4 63.8796 219.391 61.9029 220.082 57.738C220.48 55.3376 219.804 43.0582 220.013 40.6296L240.916 45.2958C240.624 50.4246 238.58 62.3153 245.745 64.4197C246.937 64.7677 248.221 65.0876 249.569 65.3918Z" fill="#FF9E85"/>
<path opacity="0.22" d="M241.209 59.5599C240.913 58.6149 240.737 57.7927 240.58 56.3151C240.301 53.6728 240.449 51.2436 240.717 48.7685C236.494 48.2061 232.439 46.4303 229.163 43.7067C228.775 45.1405 226.641 51.4044 227.232 52.7667C228.349 55.342 233.599 59.5594 241.209 59.5594L241.209 59.5599Z" fill="#0C0C0C"/>
<path d="M238.083 54.6209C229.812 55.0074 219.326 51.184 217.666 40.1122L216.167 30.1218C214.507 19.0495 218.976 9.20197 229.401 7.63884C239.825 6.07571 248.963 13.8827 250.623 24.955L251.286 29.3781C251.423 30.2885 251.572 31.9366 251.577 33.9712C251.588 38.03 251.588 44.204 249.444 48.6742C247.42 52.8944 243.367 54.3747 238.083 54.622V54.6209Z" fill="#FF9E85"/>
<path d="M246.845 33.7812C246.21 33.7812 245.695 33.2665 245.695 32.6316C245.695 31.9967 246.21 31.482 246.845 31.482C247.48 31.482 247.995 31.9967 247.995 32.6316C247.995 33.2665 247.48 33.7812 246.845 33.7812Z" fill="#181818"/>
<path d="M239.7 39.948C239.467 39.948 239.268 39.7721 239.243 39.5361C239.217 39.2834 239.4 39.0571 239.653 39.0312L242.088 38.7768L240.589 33.9131C240.514 33.6706 240.651 33.413 240.893 33.3383C241.136 33.2636 241.393 33.3995 241.468 33.6425L243.131 39.0409C243.172 39.1724 243.151 39.3148 243.075 39.4295C242.999 39.5443 242.876 39.619 242.739 39.6336L239.748 39.9464C239.731 39.948 239.715 39.9491 239.699 39.9491L239.7 39.948Z" fill="#181818"/>
<path d="M239.159 45.155C234.992 45.155 233.752 42.6366 233.696 42.5186C233.588 42.2891 233.686 42.0152 233.916 41.9065C234.144 41.7982 234.417 41.8956 234.526 42.1235C234.578 42.2307 235.851 44.7042 240.437 44.1559C240.694 44.124 240.918 44.3058 240.949 44.558C240.979 44.8103 240.799 45.0387 240.547 45.069C240.052 45.128 239.59 45.155 239.16 45.155H239.159Z" fill="#181818"/>
<path d="M235.681 26.8428C235.791 27.1854 234.545 27.6974 232.793 28.1667C231.041 28.636 229.456 28.9748 229.337 28.5429C229.186 27.9973 230.492 26.7129 232.243 26.2437C233.995 25.7744 235.507 26.3043 235.681 26.8428Z" fill="#181818"/>
<path d="M235.319 34.514C234.684 34.514 234.169 33.9993 234.169 33.3644C234.169 32.7295 234.684 32.2148 235.319 32.2148C235.954 32.2148 236.469 32.7295 236.469 33.3644C236.469 33.9993 235.954 34.514 235.319 34.514Z" fill="#181818"/>
<path d="M249.641 27.0832C249.603 27.441 248.256 27.4036 246.464 27.1216C244.673 26.8396 243.086 26.5057 243.153 26.0629C243.237 25.5033 244.764 24.8192 246.556 25.1011C248.347 25.3831 249.7 26.5203 249.641 27.0832Z" fill="#181818"/>
<path d="M218.819 43.3885C215.651 43.8637 212.575 40.8592 212.1 37.6913C211.624 34.5233 213.931 32.3908 217.099 31.9156L219.049 33.7937L221.543 42.9798L218.819 43.3885Z" fill="#FF9E85"/>
<path d="M220.298 37.9017C220.834 37.8768 221.25 37.426 221.228 36.8901C221.083 33.4277 220.893 21.7719 224.826 20.3939C227.907 19.3141 236.208 22.7576 243.141 20.4242C246.174 19.4034 249.236 19.7693 249.739 21.1993C249.938 21.7654 250.731 13.1287 244.984 7.44344C240.408 2.91697 227.505 3.22981 221.951 5.68004C206.572 12.4657 216.539 32.696 216.539 32.696L217.788 37.256C217.908 37.696 218.318 37.9943 218.774 37.9726L220.298 37.9017Z" fill="#181818"/>
<path d="M233.984 9.02397C232.788 5.6653 233.668 2.28385 235.95 1.47129C238.232 0.658724 241.051 2.72275 242.247 6.08141C243.443 9.44008 242.563 12.8215 240.281 13.6341C237.999 14.4466 235.18 12.3826 233.984 9.02397Z" fill="#181818"/>
<path d="M263.976 392.21C263.976 392.21 266.404 404.874 278.191 405.581C289.978 406.286 287.422 415.733 287.422 415.733H242.379V393.094L263.975 392.211L263.976 392.21Z" fill="#A6DDFD"/>
<path d="M269.7 163.697C269.7 163.697 273.398 273.788 273.013 279.169L269.537 399.459L240.428 400L235.734 274.819C235.734 274.819 232.658 240.287 224.364 208.223C220.109 191.77 217.58 174.914 216.743 157.934L269.7 163.697Z" fill="#181818"/>
<path d="M187.091 380.925C187.091 380.925 179.907 391.607 187.745 400.49C195.584 409.373 187.137 414.235 187.137 414.235L155.286 382.195L171.199 366.187L187.091 380.925Z" fill="#A6DDFD"/>
<path d="M188.784 161.196C188.784 161.196 188.925 157.389 188.896 166.025C188.846 180.366 190.202 218.262 189.249 267.105C188.487 306.148 161.47 373.146 161.47 373.146L185.837 390.741C185.837 390.741 222.491 330.934 228.308 271.727C231.286 241.421 237.378 159.888 237.378 159.888L188.784 161.196H188.784Z" fill="#181818"/>
<g style="mix-blend-mode:plus-darker">
<path d="M231.3 241.752L233.727 204.41C233.727 204.41 236.22 219.934 236.22 233.315C236.22 239.855 234.882 265.75 234.882 265.75L231.3 241.752H231.3Z" fill="#181818"/>
</g>
<path d="M188.464 161.193L188.367 161.199C188.367 161.199 188.437 159.32 188.464 161.193Z" fill="#333333"/>
<path d="M188.585 161.193L188.488 161.198C188.488 161.198 188.558 159.32 188.585 161.193Z" fill="#333333"/>
<path d="M273.99 102.588C273.379 109.802 270.41 154.811 269.823 163.696H188.939C188.483 155.682 186.431 120.637 184.698 104.965C183.044 90.0097 179.799 82.5225 182.178 78.1011C186.064 70.875 196.685 66.6994 203.927 65.713C208.35 65.1111 215 64 215 64C215 64 215.564 76.1398 228.993 76.7777C247.274 77.6451 245.909 64.5 246 64.5C248.961 64.5 266.023 66.5651 270.162 69.0327C281.44 75.7514 275.285 87.3 273.99 102.588Z" fill="#A6DDFD"/>
<path d="M335.467 115.778C335.858 114.694 337.074 114.152 338.142 114.607C339.145 115.034 339.578 116.236 339.206 117.265L338.281 119.831L344.096 113.866C344.818 113.103 346.191 112.631 346.988 113.503C347.68 114.165 349.277 114.369 349.537 115.61C349.545 115.616 349.529 126.972 348.859 127.681C346.015 130.685 339.14 131.266 335.304 129.741L329.268 127.34L335.467 115.778Z" fill="#FF9E85"/>
<g opacity="0.1">
<path d="M335.467 115.778C335.858 114.694 337.074 114.152 338.142 114.607C339.145 115.034 339.578 116.236 339.206 117.265L338.281 119.831L344.096 113.866C344.818 113.103 346.191 112.631 346.988 113.503C347.68 114.165 349.277 114.369 349.537 115.61C349.545 115.616 349.529 126.972 348.859 127.681C346.015 130.685 339.14 131.266 335.304 129.741L329.268 127.34L335.467 115.778Z" fill="#0C0C0C"/>
</g>
<path d="M360.52 162.055L256.778 177.654C248.088 178.96 241.382 170.11 244.936 162.027L284.573 71.888C287.881 64.3654 297.848 62.8666 303.198 69.0877L367.302 143.628C373.051 150.313 369.21 160.749 360.52 162.055Z" fill="#F38176"/>
<path d="M255.068 178.055C251.534 178.055 248.251 176.432 246.049 173.526C243.487 170.145 242.978 165.804 244.688 161.916L284.325 71.7778C285.916 68.1587 289.189 65.6484 293.08 65.0635C296.97 64.4807 300.829 65.9166 303.403 68.9086L367.508 143.449C370.273 146.665 371.048 150.966 369.58 154.953C368.112 158.94 364.74 161.696 360.56 162.324L256.819 177.924C256.23 178.012 255.646 178.055 255.068 178.055ZM294.79 65.4818C294.249 65.4818 293.705 65.5217 293.16 65.6042C289.454 66.1618 286.337 68.552 284.821 71.999L245.184 162.137C243.556 165.841 244.04 169.975 246.481 173.195C248.921 176.416 252.756 177.98 256.738 177.384L360.48 161.785C364.462 161.186 367.673 158.562 369.071 154.764C370.469 150.966 369.731 146.869 367.097 143.806L302.992 69.2664C300.902 66.8358 297.92 65.4818 294.79 65.4818H294.79Z" fill="#181818"/>
<path d="M293.021 107.601L290.765 95.5108L304.169 93.4959L305.525 105.721L307.82 133.983L299.042 135.303L293.022 107.601H293.021ZM297.412 149.669C296.7 144.878 299.587 140.667 304.222 139.969C308.857 139.273 312.842 142.45 313.554 147.241C314.261 152.001 311.374 156.211 306.739 156.907C302.104 157.604 298.119 154.428 297.412 149.668V149.669Z" fill="white"/>
<path d="M342.865 124.692C342.683 123.845 343.142 123.212 343.701 122.879C343.684 122.856 343.625 122.811 343.667 122.783L342.294 122.834C341.464 122.864 340.684 122.303 340.553 121.479C340.417 120.624 340.952 119.859 341.724 119.649C341.712 119.638 341.711 119.619 341.703 119.605L341.139 119.626C340.359 119.655 339.624 119.151 339.449 118.385C339.213 117.355 339.965 116.419 340.96 116.382L342.262 116.334C342.26 116.327 342.253 116.323 342.253 116.316C342.252 116.306 342.26 116.3 342.261 116.291C341.536 116.154 340.975 115.53 340.946 114.757C340.849 113.81 341.861 113.231 342.703 113.2L345.361 113.308C346.195 113.342 346.954 113.794 347.388 114.511C349.235 117.564 353.869 125.654 351.183 125.754L344.572 126C343.809 126.028 343.025 125.444 342.865 124.692Z" fill="#FF9E85"/>
<path d="M274.636 138.006C274.577 137.144 273.988 136.493 273.247 136.28C273.261 136.248 273.274 136.215 273.267 136.178C273.253 136.114 273.204 136.077 273.148 136.057L274.738 135.702C275.699 135.487 276.427 134.609 276.332 133.623C276.235 132.601 275.391 131.885 274.444 131.876C274.454 131.86 274.45 131.838 274.455 131.82L275.108 131.674C276.012 131.472 276.705 130.672 276.678 129.741C276.641 128.488 275.5 127.641 274.347 127.898L272.84 128.234C272.84 128.226 272.846 128.22 272.844 128.211C272.843 128.2 272.831 128.195 272.828 128.185C273.619 127.81 274.077 126.925 273.879 126.03C273.709 124.914 272.375 124.554 271.4 124.772L262.603 126.575L264.69 125.04C265.527 124.424 265.819 123.242 265.251 122.37C264.647 121.439 263.398 121.218 262.518 121.866L251.122 130.248C248.343 132.292 247.684 136.19 249.636 139.043C251.864 142.299 255.832 143.869 259.668 143.013L273.066 140.021C273.95 139.824 274.697 138.915 274.636 138.006Z" fill="#FF9E85"/>
<g opacity="0.25">
<path d="M264.135 130.013C264.157 130.107 264.249 130.167 264.343 130.147L272.707 128.421C272.802 128.401 272.863 128.307 272.844 128.211C272.832 128.12 272.731 128.053 272.635 128.073L264.272 129.799C264.176 129.819 264.115 129.913 264.135 130.009L264.136 130.013H264.135Z" fill="#0C0C0C"/>
</g>
<g opacity="0.25">
<path d="M264.79 133.745C264.811 133.839 264.903 133.899 264.998 133.879L274.331 131.953C274.427 131.934 274.488 131.84 274.469 131.744C274.45 131.656 274.356 131.586 274.26 131.605L264.927 133.531C264.831 133.551 264.77 133.645 264.789 133.741L264.79 133.745H264.79Z" fill="#0C0C0C"/>
</g>
<g opacity="0.25">
<path d="M265.476 137.79C265.498 137.884 265.59 137.944 265.684 137.925L273.13 136.388C273.225 136.369 273.286 136.275 273.267 136.178C273.245 136.082 273.154 136.021 273.058 136.04L265.613 137.577C265.517 137.596 265.456 137.69 265.476 137.786L265.477 137.79H265.476Z" fill="#0C0C0C"/>
</g>
<path d="M258.839 148.348L186.146 161.563C185.612 161.621 185.078 161.65 184.547 161.65C180.505 161.65 176.612 159.98 173.806 156.988C170.632 153.603 169.218 148.918 169.985 144.328L180.162 83.4771C181.515 75.3864 189.131 69.9321 197.175 71.2916C205.217 72.6527 210.641 80.3157 209.288 88.4064L202.348 130.296L255.643 123.563L258.839 148.347V148.348Z" fill="#A6DDFD"/>
<path d="M186.146 161.833C186.018 161.833 185.905 161.742 185.881 161.611C185.855 161.464 185.952 161.323 186.098 161.296L258.54 148.127L255.411 123.866L202.382 130.565C202.294 130.576 202.213 130.546 202.155 130.484C202.096 130.423 202.069 130.337 202.083 130.252L206.495 103.48C206.519 103.333 206.656 103.229 206.804 103.257C206.951 103.282 207.049 103.421 207.025 103.569L202.673 129.983L255.61 123.295C255.754 123.277 255.891 123.381 255.91 123.529L259.106 148.313C259.124 148.456 259.028 148.588 258.887 148.614L186.194 161.83C186.178 161.832 186.162 161.834 186.146 161.834V161.833Z" fill="#181818"/>
<path d="M202.307 130.029L197.63 130.782L197.716 131.32L202.392 130.567L202.307 130.029Z" fill="#181818"/>
<path d="M128.456 282.692L58.1457 282.645C52.2559 282.641 48.686 276.103 51.8421 271.101L87.0345 215.32C89.9719 210.665 96.7261 210.669 99.6569 215.329L134.774 271.157C137.924 276.164 134.345 282.697 128.456 282.694V282.692Z" fill="#F2F3F6"/>
<path d="M87.8518 268.165C87.8539 264.918 90.1843 262.416 93.3257 262.418C96.4666 262.421 98.7937 264.925 98.7915 268.173C98.7893 271.398 96.459 273.9 93.3181 273.898C90.1767 273.895 87.8496 271.391 87.8518 268.165ZM89.1038 239.84L88.8046 231.601L97.8881 231.607L97.578 239.846L96.3027 258.811L90.3531 258.806L89.1038 239.84Z" fill="white"/>
<path d="M163.912 99.5999L107.325 99.5616C102.585 99.5583 99.7122 94.2964 102.252 90.2704L130.576 45.377C132.94 41.6301 138.376 41.6339 140.735 45.3841L168.998 90.3157C171.533 94.345 168.653 99.6031 163.912 99.5999Z" fill="#F2F3F6"/>
<path d="M131.235 87.9094C131.237 85.2965 133.112 83.2832 135.64 83.2849C138.168 83.2865 140.04 85.3025 140.039 87.916C140.037 90.512 138.162 92.5247 135.634 92.5236C133.106 92.5226 131.234 90.5055 131.235 87.9094ZM132.242 65.1164L132.001 58.4852L139.311 58.4906L139.062 65.1208L138.036 80.3819L133.248 80.3786L132.242 65.1164Z" fill="white"/>
<path d="M378.008 335.385L316.254 335.343C311.081 335.34 307.945 329.597 310.717 325.203L341.627 276.211C344.207 272.122 350.139 272.126 352.713 276.218L383.557 325.253C386.324 329.65 383.181 335.389 378.008 335.385Z" fill="#F2F3F6"/>
<path d="M342 323.112C342.002 320.26 344.048 318.063 346.807 318.065C349.566 318.067 351.61 320.266 351.608 323.119C351.606 325.952 349.559 328.149 346.801 328.147C344.042 328.145 341.998 325.946 342 323.112ZM343.099 298.236L342.836 291L350.814 291.005L350.541 298.241L349.421 314.896L344.197 314.892L343.099 298.236Z" fill="white"/>
</g>
<path d="M443.5 416H0.571782C0.144835 416 0 415.776 0 415.5C0 415.224 0.143833 415 0.571782 415C0.571782 415 443.072 415 443.5 415C443.928 415 444 415.224 444 415.5C444 415.776 443.928 416 443.5 416Z" fill="#39404D"/>
<defs>
<clipPath id="clip0_3399_20940">
<rect width="341.918" height="416" fill="white" transform="translate(50.6667)"/>
</clipPath>
</defs>
</svg>
