<svg width="320" height="97" viewBox="0 0 320 97" fill="none" xmlns="http://www.w3.org/2000/svg">
<ellipse opacity="0.19" cx="121" cy="65.9004" rx="31" ry="4.5" fill="#39404D"/>
<ellipse opacity="0.19" cx="188.5" cy="65.9004" rx="31.5" ry="4.5" fill="#39404D"/>
<path d="M201 39.6727C200.89 29.6604 196.866 21.1145 191.517 17.4231V15.4004L176.775 15.5521C168.478 15.6431 161.834 26.6769 162.003 40.1278C162.172 53.5787 168.976 64.4708 177.283 64.4L192.025 64.2484V62.2257C197.204 58.3118 201.049 49.685 201 39.6727Z" fill="#39404D" stroke="#39404D" stroke-width="1.04742" stroke-linecap="round" stroke-linejoin="round"/>
<path d="M207.684 39.6264C207.574 29.2449 203.558 20.3807 197.909 16.5276V14.4014L191.559 14.4712C182.785 14.5611 175.805 25.9708 175.955 39.9558C176.105 53.9409 183.326 65.2009 192.1 65.111L198.45 65.0411V62.9249C203.968 58.952 207.794 49.968 207.684 39.6264Z" fill="#F2F3F6" stroke="#39404D" stroke-width="1.04742" stroke-linecap="round" stroke-linejoin="round"/>
<path d="M213.998 39.7346C214.149 53.8088 207.104 65.3094 198.272 65.3999C189.44 65.4903 182.123 54.1506 182.002 40.0764C181.88 26.0022 188.895 14.5016 197.727 14.4011C206.559 14.3005 213.826 25.6504 213.998 39.7346Z" fill="#758195" stroke="#39404D" stroke-width="1.04742" stroke-linecap="round" stroke-linejoin="round"/>
<path d="M210.409 39.1275C210.479 45.7457 207.164 51.156 203.007 51.2059C198.851 51.2558 195.426 45.9054 195.356 39.2273C195.285 32.5492 198.601 27.2486 202.757 27.1488C206.914 27.049 210.339 32.4993 210.409 39.1275Z" fill="#39404D" stroke="#596479" stroke-width="1.04742" stroke-linecap="round" stroke-linejoin="round"/>
<path d="M204.318 39.5771C204.318 39.5771 219.833 38.8569 227.845 48.3403C235.008 56.8177 244.371 66.8074 254.386 63.8132C267.204 59.9814 271.51 47.7397 284.933 48.3408C297.153 48.888 297.954 65.8092 315 64.1433" stroke="#39404D" stroke-width="3.14226" stroke-linecap="round" stroke-linejoin="round"/>
<path d="M130.415 40.505C129.604 31.7905 125.408 24.6332 120.4 21.7883L120.24 20.0115L107.159 21.2193C99.7979 21.8981 94.7201 31.9702 95.8118 43.7092C96.9034 55.4483 103.754 64.4024 111.115 63.6737L124.196 62.4658L124.025 60.689C128.432 57.0155 131.227 49.2194 130.415 40.505Z" fill="#39404D" stroke="#39404D" stroke-width="1.04742" stroke-linecap="round" stroke-linejoin="round"/>
<path d="M136.334 39.9862C135.483 30.8325 131.326 23.2959 126.028 20.3012L125.848 18.4346L120.249 18.9536C112.517 19.6724 107.179 30.2435 108.321 42.5815C109.463 54.9196 116.674 64.3328 124.406 63.6141L130.004 63.095L129.834 61.2283C134.461 57.2953 137.186 49.1099 136.334 39.9862Z" fill="#C3C8D3" stroke="#39404D" stroke-width="1.04742" stroke-linecap="round" stroke-linejoin="round"/>
<path d="M141.846 39.5925C142.983 52.0043 137.712 62.6386 130.069 63.3616C122.425 64.0846 115.316 54.6051 114.159 42.2034C113.002 29.8017 118.292 19.1071 125.926 18.4343C133.559 17.7615 140.699 27.1908 141.846 39.5925Z" fill="#F2F3F6" stroke="#39404D" stroke-width="1.04742" stroke-linecap="round" stroke-linejoin="round"/>
<path d="M147.952 32.2297L126.228 34.2261C125.923 34.255 125.616 34.2236 125.324 34.1337C125.031 34.0439 124.76 33.8974 124.524 33.7026C124.289 33.5078 124.094 33.2686 123.952 32.9988C123.809 32.7289 123.722 32.4336 123.694 32.1299C123.665 31.8263 123.697 31.52 123.787 31.2285C123.877 30.9371 124.024 30.6663 124.219 30.4316C124.415 30.197 124.655 30.0031 124.925 29.8611C125.196 29.7192 125.493 29.6319 125.797 29.6044L147.521 27.6079C147.826 27.5791 148.133 27.6105 148.425 27.7003C148.718 27.7901 148.989 27.9366 149.225 28.1314C149.46 28.3262 149.655 28.5654 149.797 28.8353C149.94 29.1052 150.027 29.4005 150.055 29.7042C150.084 30.0078 150.052 30.3141 149.962 30.6055C149.872 30.8969 149.725 31.1677 149.53 31.4024C149.334 31.6371 149.094 31.8309 148.823 31.9729C148.553 32.1149 148.256 32.2021 147.952 32.2297Z" fill="#758195" stroke="#39404D" stroke-width="1.04742" stroke-linecap="round" stroke-linejoin="round"/>
<path d="M149.564 49.3893L127.84 51.3857C127.536 51.4145 127.228 51.3831 126.936 51.2933C126.644 51.2035 126.372 51.057 126.136 50.8622C125.901 50.6674 125.706 50.4282 125.564 50.1583C125.422 49.8884 125.334 49.5931 125.306 49.2894C125.277 48.9858 125.309 48.6795 125.399 48.3881C125.489 48.0967 125.636 47.8258 125.832 47.5912C126.027 47.3565 126.267 47.1627 126.538 47.0207C126.809 46.8787 127.105 46.7915 127.41 46.7639L149.133 44.7675C149.747 44.7146 150.358 44.9049 150.832 45.2973C151.306 45.6897 151.606 46.2524 151.667 46.8638C151.696 47.1673 151.665 47.4736 151.574 47.7651C151.484 48.0565 151.337 48.3273 151.142 48.562C150.946 48.7966 150.706 48.9905 150.436 49.1324C150.165 49.2744 149.869 49.3617 149.564 49.3893Z" fill="#758195" stroke="#39404D" stroke-width="1.04742" stroke-linecap="round" stroke-linejoin="round"/>
<path d="M101.52 40.0948C101.52 40.0948 87.1818 41.0705 79.6156 47.7414C66.5954 59.2209 66.0946 66.7076 51.0714 65.2102C36.5791 63.7658 29.0372 43.7485 5 47.7414" stroke="#39404D" stroke-width="3.14226" stroke-linecap="round" stroke-linejoin="round"/>
</svg>
